<?xml version="1.0" encoding="UTF-8"?>
<svg version="1.1" xmlns="http://www.w3.org/2000/svg" width="290" height="174">
<path d="M0 0 C95.7 0 191.4 0 290 0 C290 57.42 290 114.84 290 174 C194.3 174 98.6 174 0 174 C0 116.58 0 59.16 0 0 Z " fill="#FDFDFD" transform="translate(0,0)"/>
<path d="M0 0 C6.23616459 0.42331581 10.90914598 3.47349443 16.25 6.4375 C24.8398991 11.06400659 33.50578009 15.03021244 42.625 18.5 C43.6655957 18.89630615 44.70619141 19.2926123 45.77832031 19.70092773 C57.1768558 23.93961097 68.73281818 27.32498765 80.5625 30.125 C81.59568359 30.37636719 82.62886719 30.62773437 83.69335938 30.88671875 C103.11131912 35.52565597 122.44644268 37.36142151 142.37548828 37.31567383 C145.23378882 37.3125179 148.09104516 37.33607578 150.94921875 37.36132812 C164.1877199 37.40679396 176.9440013 36.14210981 190 34 C191.21026855 33.80656006 192.42053711 33.61312012 193.66748047 33.41381836 C196.56025976 32.92463554 199.43591641 32.38883498 202.3125 31.8125 C203.3324707 31.60818359 204.35244141 31.40386719 205.40332031 31.19335938 C220.89942966 27.92453778 235.85439076 22.74954408 250.51953125 16.83203125 C253.87778652 15.70556137 256.50225371 15.59328532 260 16 C260.8125 18.1875 260.8125 18.1875 261 21 C257.60398795 24.95452443 253.71208859 27.70041613 249.25 30.3125 C248.26012085 30.89269897 248.26012085 30.89269897 247.25024414 31.48461914 C222.08312621 45.98303532 194.65688727 54.0573901 166 58 C165.2457373 58.10908691 164.49147461 58.21817383 163.71435547 58.33056641 C144.80796538 60.78599838 124.64398 59.7355085 106 56 C104.99018066 55.80132324 103.98036133 55.60264648 102.93994141 55.39794922 C67.83104145 48.31890052 35.42927329 34.34513517 8 11 C7.21625 10.37222656 6.4325 9.74445313 5.625 9.09765625 C4.8825 8.48792969 4.14 7.87820312 3.375 7.25 C2.72273437 6.71890625 2.07046875 6.1878125 1.3984375 5.640625 C0 4 0 4 0 0 Z " fill="#FF9903" transform="translate(2,114)"/>
<path d="M0 0 C4.95 0 9.9 0 15 0 C17.97935465 7.79651006 20.2756058 15.51690477 22.19921875 23.6328125 C22.61999443 25.37049393 22.61999443 25.37049393 23.04927063 27.14328003 C23.93462835 30.80244967 24.8116909 34.46353424 25.6875 38.125 C26.57500082 41.82191983 27.46432411 45.51837176 28.35786438 49.21383667 C28.91140995 51.50437629 29.46130704 53.79580122 30.00724792 56.08816528 C30.37817314 57.62644485 30.37817314 57.62644485 30.7565918 59.19580078 C30.97324997 60.10194122 31.18990814 61.00808167 31.41313171 61.94168091 C31.81238538 63.97442641 31.81238538 63.97442641 33 65 C33.18062988 64.18660156 33.36125977 63.37320313 33.54736328 62.53515625 C37.27950673 45.76762359 41.10219333 29.03836456 45.39306641 12.40283203 C45.79298453 10.81956808 46.17593214 9.23190604 46.54052734 7.64013672 C47.79619089 2.20380911 47.79619089 2.20380911 50 0 C53.15234375 -0.3359375 53.15234375 -0.3359375 56.9375 -0.375 C58.18402344 -0.40335937 59.43054688 -0.43171875 60.71484375 -0.4609375 C64 -0 64 -0 65.59082031 1.58300781 C67.40887389 4.70129098 68.05698179 7.60590453 68.83203125 11.1328125 C69.06795235 12.18535973 69.06795235 12.18535973 69.30863953 13.25917053 C69.81911964 15.54584947 70.31578606 17.83529533 70.8125 20.125 C71.16171954 21.69985682 71.51198746 23.27448152 71.86328125 24.84887695 C72.57254492 28.03102673 73.27735085 31.21411315 73.97900391 34.39794922 C75.43938284 41.00527971 76.96902731 47.59621533 78.5 54.1875 C78.98976526 56.30594753 79.47936848 58.42443254 79.96875 60.54296875 C80.31244116 62.02865945 80.65616564 63.51434244 81 65 C83.54113566 57.75776338 85.54528117 50.41029465 87.48065186 42.987854 C88.32287101 39.76418077 89.17980723 36.54442884 90.03515625 33.32421875 C90.36966797 32.06416016 90.70417969 30.80410156 91.04882812 29.50585938 C91.38333984 28.24580078 91.71785156 26.98574219 92.0625 25.6875 C92.23177002 25.0473999 92.40104004 24.4072998 92.57543945 23.74780273 C98.44632454 1.55367546 98.44632454 1.55367546 100 0 C102.53049402 -0.07313567 105.03304837 -0.09247527 107.5625 -0.0625 C108.62887695 -0.05573242 108.62887695 -0.05573242 109.71679688 -0.04882812 C111.47790013 -0.03700864 113.23896036 -0.01907263 115 0 C114.39747588 5.02822024 113.32819248 9.70530087 111.80688477 14.54003906 C111.5856192 15.25800659 111.36435364 15.97597412 111.13638306 16.71569824 C110.41005074 19.06736201 109.67600028 21.41653008 108.94140625 23.765625 C108.43163336 25.40743002 107.9221933 27.04933843 107.41307068 28.69134521 C106.34808621 32.12181277 105.27930439 35.55106707 104.20776367 38.97949219 C102.83442062 43.37451635 101.47029517 47.77233731 100.10893345 52.17108536 C99.05988538 55.55733645 98.00616567 58.94211947 96.95100212 62.32646942 C96.44604185 63.94795883 95.94249964 65.56989055 95.44040108 67.19226837 C94.73915506 69.45552994 94.03168764 71.71675238 93.32250977 73.97753906 C93.11620438 74.64771057 92.90989899 75.31788208 92.69734192 76.00836182 C91.73658371 79.04925641 90.78688373 81.31967441 89 84 C86.40573202 84.27668225 84.08736354 84.37295242 81.5 84.3125 C80.81035156 84.31572266 80.12070313 84.31894531 79.41015625 84.32226562 C74.26712592 84.26712592 74.26712592 84.26712592 72 82 C71.30151367 79.99487305 71.30151367 79.99487305 70.66796875 77.51171875 C70.42933105 76.58834717 70.19069336 75.66497559 69.94482422 74.71362305 C69.69490723 73.71500244 69.44499023 72.71638184 69.1875 71.6875 C68.92469238 70.65729736 68.66188477 69.62709473 68.39111328 68.56567383 C64.302833 52.44324322 60.55124138 36.24841726 57 20 C54.02291207 30.8149964 51.3729785 41.66081129 49 52.625 C42.78605812 81.21394188 42.78605812 81.21394188 40 84 C37.46950598 84.07313567 34.96695163 84.09247527 32.4375 84.0625 C31.72658203 84.05798828 31.01566406 84.05347656 30.28320312 84.04882812 C28.52209987 84.03700864 26.76103964 84.01907263 25 84 C21.15472624 75.9953143 18.58722663 67.7104064 16.015625 59.23828125 C15.55077591 57.71844183 15.08566301 56.19868308 14.62030029 54.67900085 C13.65165739 51.51072585 12.68740538 48.34115515 11.72607422 45.1706543 C10.4960992 41.11605404 9.25327069 37.0655227 8.0069313 33.01592731 C7.04539547 29.88553386 6.09162372 26.75281524 5.14006805 23.61937523 C4.68496879 22.12471464 4.2272625 20.63084516 3.76685333 19.13781166 C3.12460792 17.05165892 2.49314434 14.96252699 1.86425781 12.87231445 C1.50325989 11.68700638 1.14226196 10.5016983 0.77032471 9.2804718 C0 6 0 6 0 0 Z " fill="#242E3E" transform="translate(92,4)"/>
<path d="M0 0 C5.65036954 3.97156704 8.53094833 10.10036085 10.30078125 16.6171875 C10.58347063 19.96532757 10.57786302 23.30159525 10.57421875 26.66015625 C10.59451697 28.6412816 10.61536793 30.62240134 10.63671875 32.60351562 C10.65923568 35.69934834 10.67576278 38.79495851 10.68164062 41.89086914 C10.37368728 56.61501007 10.37368728 56.61501007 14.54541016 70.5246582 C15.52979216 73.25159362 15.15062862 74.88000186 14.30078125 77.6171875 C11.96116813 79.92946869 9.34115392 81.38257697 6.30078125 82.6171875 C3.61328125 82.4296875 3.61328125 82.4296875 1.30078125 80.6171875 C-0.12769467 78.59905001 -1.38584658 76.55625855 -2.5859375 74.39453125 C-3.58441397 72.45767013 -3.58441397 72.45767013 -5.69921875 71.6171875 C-6.19421875 73.1021875 -6.19421875 73.1021875 -6.69921875 74.6171875 C-15.74879037 82.37396318 -25.29593491 84.37845208 -36.94140625 83.96875 C-44.32027053 83.27841966 -48.95315386 80.28609835 -53.69921875 74.6171875 C-57.20536206 69.36448952 -58.42167731 65.59681119 -58.32421875 59.3046875 C-58.31511475 58.55920654 -58.30601074 57.81372559 -58.29663086 57.0456543 C-58.02006144 50.39426808 -56.33204627 45.54613389 -51.69921875 40.6171875 C-42.90181105 32.77492692 -33.03726475 31.10195346 -21.55078125 31.3125 C-15.76068514 31.77054006 -10.27723631 33.03690597 -4.69921875 34.6171875 C-4.86179751 22.26233968 -4.86179751 22.26233968 -10.51171875 11.7421875 C-19.45740684 7.14154791 -28.68724739 7.46922288 -38.07861328 10.45874023 C-39.46818491 10.93115619 -40.85238864 11.41973803 -42.22998047 11.92602539 C-46.12512383 13.32303637 -48.71131183 13.89791914 -52.69921875 12.6171875 C-52.83517738 11.20321777 -52.9316572 9.78542066 -53.01171875 8.3671875 C-53.09873047 7.18382812 -53.09873047 7.18382812 -53.1875 5.9765625 C-52.69921875 3.6171875 -52.69921875 3.6171875 -50.67578125 1.4921875 C-47.12994708 -0.74140883 -43.77126196 -1.9852255 -39.76171875 -3.1328125 C-39.01535156 -3.3481665 -38.26898438 -3.56352051 -37.5 -3.78540039 C-24.68091578 -7.22862167 -11.77046628 -6.18727465 0 0 Z " fill="#242E3E" transform="translate(71.69921875,6.3828125)"/>
<path d="M0 0 C0.66 0 1.32 0 2 0 C2.64775391 1.09634766 2.64775391 1.09634766 3.30859375 2.21484375 C18.76155532 27.66048255 63.58325097 43.38783826 90.74462891 50.34057617 C108.95037497 54.74654166 126.87599799 57.0571249 145.5625 57.5625 C147.06316078 57.60578362 148.56381197 57.6494007 150.06445312 57.69335938 C153.70953299 57.79941797 157.35472182 57.90096257 161 58 C161 58.33 161 58.66 161 59 C107.87 59 54.74 59 0 59 C0 39.53 0 20.06 0 0 Z " fill="#FFFEFD" transform="translate(0,115)"/>
<path d="M0 0 C2.68186135 3.54388821 2.16246981 7.02281398 1.75 11.3125 C-1.85865924 12.62549043 -3.52413881 11.96647296 -6.9375 10.375 C-12.0821769 8.37814428 -16.61084819 7.89325264 -22.0625 7.875 C-23.13794067 7.8606189 -23.13794067 7.8606189 -24.23510742 7.84594727 C-29.95101679 7.93578866 -34.17739858 9.23989858 -38.25 13.3125 C-38.81043191 16.69868862 -38.76194925 19.92152435 -38.25 23.3125 C-33.92695253 28.78836013 -25.35812781 30.68764079 -18.87890625 32.65234375 C-0.91840127 38.1640528 -0.91840127 38.1640528 4.4140625 47.1015625 C6.95775322 53.21534547 6.75430551 60.36475822 5.12890625 66.75390625 C2.3482667 73.06904764 -2.81989908 77.70692084 -9.00390625 80.6015625 C-22.50590455 85.70844077 -36.40436726 85.5380712 -49.95703125 80.2578125 C-54.59386121 77.96863879 -54.59386121 77.96863879 -56.25 76.3125 C-56.32205511 74.62641034 -56.33386068 72.93749341 -56.3125 71.25 C-56.30347656 70.33089844 -56.29445312 69.41179687 -56.28515625 68.46484375 C-56.27355469 67.75457031 -56.26195312 67.04429688 -56.25 66.3125 C-52.4826798 65.09221585 -50.72571846 65.83464995 -47.140625 67.4765625 C-38.35116769 71.36281015 -26.71198324 72.14621773 -17.5625 69.125 C-14.01437237 67.18357168 -12.21967208 65.84149581 -10.25 62.3125 C-9.7582449 58.29649998 -10.14622155 55.73931751 -12.25 52.3125 C-18.28950389 47.91758221 -26.41648088 46.21828183 -33.47265625 44.1328125 C-41.57950404 41.58393459 -48.5178853 37.59267646 -53.25 30.3125 C-55.9823522 24.711178 -56.14871734 18.40033309 -55.25 12.3125 C-51.45059289 3.73524315 -44.67320189 -1.12061729 -36.25 -4.6875 C-24.49500053 -8.68472577 -10.57081685 -5.48869336 0 0 Z " fill="#242F3E" transform="translate(270.25,6.6875)"/>
<path d="M0 0 C1.14809475 16.32845869 -3.33406524 31.53311995 -13.8984375 44.29296875 C-17.06456895 47.63944946 -17.06456895 47.63944946 -19 49 C-19.99 49 -20.98 49 -22 49 C-21.41159508 43.42486334 -19.96168595 38.61233135 -18 33.375 C-15.73007548 27.25048667 -13.83875226 21.8035983 -13.9375 15.1875 C-13.94652344 14.39730469 -13.95554687 13.60710937 -13.96484375 12.79296875 C-13.97644531 12.20128906 -13.98804688 11.60960938 -14 11 C-19.17844123 7.84646207 -23.13616328 7.59415052 -29 7.75 C-29.82927002 7.76095703 -30.65854004 7.77191406 -31.51293945 7.78320312 C-38.69581561 7.91034591 -45.84556881 8.34641412 -53 9 C-52.4156453 5.95119288 -52.17359466 5.15430636 -49.75 3 C-36.24115197 -5.31566558 -14.18008227 -7.63542891 0 0 Z " fill="#FF9904" transform="translate(288,112)"/>
<path d="M0 0 C1.62094818 1.62094818 1.20950959 3.39127885 1.25 5.625 C1.15213573 11.35821516 0.2442145 15.57248321 -3.76953125 19.9140625 C-10.25015792 25.93621272 -15.67254818 27.42438511 -24.44140625 27.2578125 C-27.64982785 26.93452116 -29.53885239 26.0765933 -32 24 C-32.5775 23.525625 -33.155 23.05125 -33.75 22.5625 C-36.77985233 18.77518459 -36.51024965 13.64791048 -36 9 C-33.82044616 3.95261215 -30.28546927 1.0883187 -25.375 -1.25 C-16.95547178 -3.12100627 -8.30161956 -2.09837985 0 0 Z " fill="#FAFAFB" transform="translate(66,51)"/>
</svg>
