<?xml version="1.0" standalone="no"?>
<!DOCTYPE svg PUBLIC "-//W3C//DTD SVG 20010904//EN"
 "http://www.w3.org/TR/2001/REC-SVG-20010904/DTD/svg10.dtd">
<svg version="1.0" xmlns="http://www.w3.org/2000/svg"
 width="512.000000pt" height="512.000000pt" viewBox="0 0 512.000000 512.000000"
 preserveAspectRatio="xMidYMid meet">

<g transform="translate(0.000000,512.000000) scale(0.100000,-0.100000)"
fill="#000000" stroke="none">
<path d="M310 4386 c-151 -41 -269 -164 -300 -313 -7 -32 -10 -547 -8 -1544
l3 -1495 37 -75 c46 -93 112 -158 206 -202 l67 -32 2215 -3 c1456 -1 2231 1
2262 8 123 26 226 108 285 228 l38 76 3 1495 c2 977 -1 1512 -8 1543 -26 124
-114 234 -232 289 l-73 34 -2225 2 c-1749 1 -2235 -1 -2270 -11z m4438 -185
c15 -9 6 -18 -1238 -1170 -459 -426 -860 -798 -891 -828 l-55 -53 -235 217
c-1470 1361 -1968 1827 -1957 1835 17 10 4359 10 4376 -1z m-3722 -888 l805
-747 -48 -47 c-108 -106 -1567 -1459 -1573 -1459 -4 0 -10 14 -14 31 -8 41 -8
2897 0 2938 4 17 11 31 16 31 5 0 371 -336 814 -747z m3898 716 c3 -17 6 -678
6 -1469 0 -791 -3 -1452 -6 -1469 -4 -17 -10 -31 -13 -31 -15 0 -1621 1504
-1614 1511 523 487 1608 1489 1613 1489 4 0 10 -14 14 -31z m-2666 -1859 c134
-124 254 -231 268 -238 15 -8 37 -11 54 -7 19 4 120 90 297 255 231 214 270
247 285 237 9 -7 374 -345 811 -752 587 -547 790 -742 778 -747 -21 -9 -4361
-9 -4382 0 -11 5 199 206 794 760 805 749 809 752 831 735 12 -10 131 -119
264 -243z"/>
</g>
</svg>
