<?xml version="1.0" encoding="UTF-8"?>
<svg version="1.1" xmlns="http://www.w3.org/2000/svg" width="403" height="125">
<path d="M0 0 C132.99 0 265.98 0 403 0 C403 41.25 403 82.5 403 125 C270.01 125 137.02 125 0 125 C0 83.75 0 42.5 0 0 Z " fill="#FCFCFC" transform="translate(0,0)"/>
<path d="M0 0 C0.79535156 0.31066406 1.59070313 0.62132812 2.41015625 0.94140625 C17.94527447 7.82874494 27.74736974 21.81155614 34 37 C36.84314155 44.98899278 36.28490391 53.71906458 36.04443359 62.08935547 C36.00828403 63.64378688 36.0221151 65.19931883 36.05078125 66.75390625 C35.74357542 80.71995587 24.71928515 94.84998026 15.125 104.1171875 C8.44006989 110.04023219 1.47139138 113.33790075 -7 116 C-8.26070312 116.45052734 -8.26070312 116.45052734 -9.546875 116.91015625 C-24.09748652 121.65012818 -40.37610743 119.83205682 -53.97558594 113.00878906 C-68.8159706 104.80097855 -80.3866523 92.27798068 -85.5 75.9375 C-86.03648362 73.96790968 -86.54038415 71.98893287 -87 70 C-87.18691406 69.23171875 -87.37382813 68.4634375 -87.56640625 67.671875 C-90.13494323 51.84413359 -87.58404918 35.70590882 -78.5 22.3125 C-77.35564338 20.85717691 -76.19084129 19.41753814 -75 18 C-74.54109375 17.38253906 -74.0821875 16.76507812 -73.609375 16.12890625 C-69.33653174 10.61595619 -63.73891816 6.86826784 -58 3 C-57.41476563 2.58621094 -56.82953125 2.17242187 -56.2265625 1.74609375 C-39.70343237 -8.94781027 -17.3943864 -7.06839023 0 0 Z " fill="#0B0C0D" transform="translate(89,6)"/>
<path d="M0 0 C25.74 0 51.48 0 78 0 C78 0.33 78 0.66 78 1 C77.29617187 1.00410889 76.59234375 1.00821777 75.8671875 1.01245117 C56.72214444 1.20771312 40.83086791 2.14017472 25 14 C24.03707031 14.69029297 24.03707031 14.69029297 23.0546875 15.39453125 C11.78054051 24.16612095 4.73577866 38.20493777 2 52 C-0.04316012 68.61539361 3.04216537 85.35201808 13 99 C24.08187481 113.18479975 36.78286167 119.71117991 54 124 C54 124.33 54 124.66 54 125 C36.18 125 18.36 125 0 125 C0 83.75 0 42.5 0 0 Z " fill="#FAFAFA" transform="translate(0,0)"/>
<path d="M0 0 C2.31 0 4.62 0 7 0 C7 16.83 7 33.66 7 51 C4.69 51 2.38 51 0 51 C0 45.72 0 40.44 0 35 C-10.56 35 -21.12 35 -32 35 C-32 39.95 -32 44.9 -32 50 C-34.31 50 -36.62 50 -39 50 C-39 33.83 -39 17.66 -39 1 C-36.69 1 -34.38 1 -32 1 C-32 5.95 -32 10.9 -32 16 C-21.44 16 -10.88 16 0 16 C0 10.72 0 5.44 0 0 Z " fill="#F3F3F4" transform="translate(79,37)"/>
<path d="M0 0 C2.31 0 4.62 0 7 0 C7 16.17 7 32.34 7 49 C4.69 49 2.38 49 0 49 C-0.33 48.01 -0.66 47.02 -1 46 C-1.969375 46.495 -2.93875 46.99 -3.9375 47.5 C-8.29475584 49.3560319 -12.32327831 49.64293914 -17 49 C-21.15667985 47.2449574 -23.52949402 44.7483539 -26 41 C-28.2207513 35.50099678 -28.44219824 30.69616428 -27 25 C-24.26401174 19.90540117 -21.4996963 16.8332321 -16 15 C-8.81657841 14.39123546 -7.05088923 15.47455538 0 19 C0 12.73 0 6.46 0 0 Z " fill="#0F1010" transform="translate(268,38)"/>
<path d="M0 0 C2.125 1.125 2.125 1.125 4.125 3.125 C4.455 2.135 4.785 1.145 5.125 0.125 C7.105 0.125 9.085 0.125 11.125 0.125 C11.125 10.685 11.125 21.245 11.125 32.125 C9.145 32.125 7.165 32.125 5.125 32.125 C5.125 31.135 5.125 30.145 5.125 29.125 C4.465 29.125 3.805 29.125 3.125 29.125 C3.125 29.785 3.125 30.445 3.125 31.125 C-2.13577891 33.34006481 -7.24533554 34.01293082 -12.875 33.125 C-16.40596121 31.40743432 -18.44961299 28.70636225 -20.75 25.5625 C-22.66311308 19.71687669 -23.14327051 13.52331457 -20.9609375 7.67578125 C-16.26371721 -0.52162577 -8.9312813 -2.71821605 0 0 Z " fill="#0F1011" transform="translate(373.875,53.875)"/>
<path d="M0 0 C1.98 0 3.96 0 6 0 C6 6.6 6 13.2 6 20 C15.24 20 24.48 20 34 20 C34 13.4 34 6.8 34 0 C36.31 0 38.62 0 41 0 C41 15.18 41 30.36 41 46 C38.69 46 36.38 46 34 46 C34 39.4 34 32.8 34 26 C24.76 26 15.52 26 6 26 C6 32.6 6 39.2 6 46 C4.02 46 2.04 46 0 46 C0 30.82 0 15.64 0 0 Z " fill="#0A0A0B" transform="translate(153,40)"/>
<path d="M0 0 C3.20795936 2.32734306 5.20799358 3.88643119 7.1875 7.3125 C7.6825 11.7675 7.6825 11.7675 8.1875 16.3125 C-0.3925 16.3125 -8.9725 16.3125 -17.8125 16.3125 C-16.34238382 21.83588472 -16.34238382 21.83588472 -12.8125 25.3125 C-10.44141122 25.78718649 -10.44141122 25.78718649 -7.875 25.6875 C-7.02035156 25.69523437 -6.16570312 25.70296875 -5.28515625 25.7109375 C-2.36898162 25.24103258 -1.09949095 24.11652391 1.1875 22.3125 C4.4375 22.125 4.4375 22.125 7.1875 22.3125 C6.98146857 25.91805003 6.17539733 27.32683211 3.8125 30.125 C-0.58528093 33.49486587 -5.54949944 32.87940253 -10.8125 32.3125 C-16.3867847 31.32351401 -19.22957801 29.71437559 -22.8125 25.3125 C-25.81493903 20.02248838 -25.18249681 14.45848151 -24.1875 8.6875 C-22.53142702 4.62259359 -20.39316957 1.86522616 -16.8125 -0.6875 C-11.33107716 -2.52205328 -5.16422546 -2.76018947 0 0 Z " fill="#111112" transform="translate(226.8125,54.6875)"/>
<path d="M0 0 C4.6372461 5.38518902 4.98297124 7.61376996 5.9375 15.25 C-2.9725 15.25 -11.8825 15.25 -21.0625 15.25 C-20.0725 17.23 -19.0825 19.21 -18.0625 21.25 C-18.0625 21.91 -18.0625 22.57 -18.0625 23.25 C-15.11423237 24.23275588 -13.13597496 24.38414725 -10.0625 24.375 C-8.763125 24.37886719 -8.763125 24.37886719 -7.4375 24.3828125 C-4.91238305 24.34594205 -4.91238305 24.34594205 -2.0625 23.25 C-2.0625 22.59 -2.0625 21.93 -2.0625 21.25 C0.2475 21.25 2.5575 21.25 4.9375 21.25 C3.58658476 25.67117715 1.7724855 27.693343 -2.0625 30.25 C-8.01207892 32.16962909 -14.70519657 32.25403665 -20.4375 29.8125 C-24.83959749 25.51521435 -28.24101408 20.47550999 -28.6875 14.1875 C-27.66777106 7.76320767 -24.14904144 2.35204955 -19.0625 -1.75 C-13.08734623 -3.8306339 -5.4128529 -3.0930588 0 0 Z " fill="#0F0F10" transform="translate(310.0625,55.75)"/>
<path d="M0 0 C2.70567626 1.82339052 4.53728718 3.07457436 6 6 C6.35032356 11.34243433 6.4561069 14.64786539 3 19 C-1.03404647 21.68936431 -4.26283611 21.7812165 -9 21 C-12.14331157 18.96994461 -13.54425662 17.46700827 -14.66015625 13.875 C-15.39759887 9.63649486 -15.24323996 7.49548881 -13.3125 3.5625 C-8.98121519 -1.23703181 -6.35276894 -1.56032921 0 0 Z " fill="#F5F5F5" transform="translate(262,60)"/>
<path d="M0 0 C3.63622152 0.75313326 5.25662186 2.5770159 7.4140625 5.5 C9.18503923 9.04195346 8.44256921 12.77166319 7.4140625 16.5 C4.9483366 19.44684315 3.18120758 21.05131082 -0.5859375 22.0078125 C-4.59918338 22.35745135 -6.45703878 21.60204482 -9.5859375 19.125 C-12.52564618 14.92968693 -12.42652296 10.40477533 -11.5859375 5.5 C-9.1382844 -0.06284794 -5.59658771 -0.26414573 0 0 Z " fill="#F7F7F7" transform="translate(370.5859375,59.5)"/>
<path d="M0 0 C1.98 0 3.96 0 6 0 C6 0.99 6 1.98 6 3 C6.50015625 2.50886719 7.0003125 2.01773438 7.515625 1.51171875 C10.893107 -0.54344718 13.92763623 -0.32839999 17.75 -0.1875 C18.44738281 -0.17396484 19.14476562 -0.16042969 19.86328125 -0.14648438 C21.57585541 -0.1112945 23.28802941 -0.05749155 25 0 C25 1.98 25 3.96 25 6 C23.95199219 6.03738281 22.90398437 6.07476562 21.82421875 6.11328125 C20.44527695 6.17894515 19.06637229 6.24539235 17.6875 6.3125 C16.65206055 6.34633789 16.65206055 6.34633789 15.59570312 6.38085938 C11.71708741 6.54513757 11.71708741 6.54513757 8.30859375 8.21289062 C6.57200308 10.58450326 6.57278225 12.181734 6.48828125 15.10546875 C6.43510742 16.57983398 6.43510742 16.57983398 6.38085938 18.08398438 C6.34702148 19.62022461 6.34702148 19.62022461 6.3125 21.1875 C6.27833984 22.22326172 6.24417969 23.25902344 6.20898438 24.32617188 C6.12647358 26.8840066 6.05733428 29.44149723 6 32 C4.02 32 2.04 32 0 32 C0 21.44 0 10.88 0 0 Z " fill="#0A0B0C" transform="translate(324,54)"/>
<path d="M0 0 C10.56 0 21.12 0 32 0 C32 2.64 32 5.28 32 8 C21.44 8 10.88 8 0 8 C0 5.36 0 2.72 0 0 Z " fill="#111212" transform="translate(48,58)"/>
<path d="M0 0 C2.31 0 4.62 0 7 0 C7 16.17 7 32.34 7 49 C4.69 49 2.38 49 0 49 C0 47.35 0 45.7 0 44 C0.33 44.99 0.66 45.98 1 47 C2.32 47 3.64 47 5 47 C5 32.15 5 17.3 5 2 C3.68 2 2.36 2 1 2 C1 7.94 1 13.88 1 20 C0.67 20 0.34 20 0 20 C0 13.4 0 6.8 0 0 Z " fill="#222223" transform="translate(268,38)"/>
<path d="M0 0 C2.875 1.25 2.875 1.25 5 3 C5.33 4.32 5.66 5.64 6 7 C0.06 7 -5.88 7 -12 7 C-9.24176969 0.10442424 -7.1159125 -0.61344073 0 0 Z " fill="#E4E4E4" transform="translate(302,59)"/>
<path d="M0 0 C2.5 1.9375 2.5 1.9375 4 4 C4 4.66 4 5.32 4 6 C-2.27 6 -8.54 6 -15 6 C-14 2 -14 2 -11.4375 0.1875 C-6.89540554 -1.38158718 -4.67332666 -1.13064355 0 0 Z " fill="#E2E3E3" transform="translate(224,60)"/>
<path d="M0 0 C3.33333333 0 6.66666667 0 10 0 C10 1.65 10 3.3 10 5 C7.03 5 4.06 5 1 5 C0.67 3.35 0.34 1.7 0 0 Z " fill="#5A5A5B" transform="translate(392,54)"/>
<path d="M0 0 C-5.54165256 3.77304004 -9.34454208 4.54330269 -16 4 C-16 3.67 -16 3.34 -16 3 C-13.71068726 2.30364247 -11.4191243 1.61765623 -9.125 0.9375 C-8.47402344 0.73833984 -7.82304688 0.53917969 -7.15234375 0.33398438 C-2.2265625 -1.11328125 -2.2265625 -1.11328125 0 0 Z " fill="#D0D0D0" transform="translate(87,121)"/>
<path d="M0 0 C2.83338222 1.37840216 5.55688806 2.86418386 8.25 4.5 C8.95640625 4.9228125 9.6628125 5.345625 10.390625 5.78125 C10.92171875 6.1834375 11.4528125 6.585625 12 7 C12 7.66 12 8.32 12 9 C7.50985376 7.50328459 3.52151236 5.16631659 0 2 C0 1.34 0 0.68 0 0 Z " fill="#1C1C1D" transform="translate(23,109)"/>
<path d="M0 0 C1.65 0 3.3 0 5 0 C5 1.65 5 3.3 5 5 C3.68 5 2.36 5 1 5 C0.67 3.35 0.34 1.7 0 0 Z " fill="#9D9D9D" transform="translate(392,54)"/>
<path d="M0 0 C0 3 0 3 -2 5.1875 C-2.66 5.785625 -3.32 6.38375 -4 7 C-4.66 6.67 -5.32 6.34 -6 6 C-2.25 1.125 -2.25 1.125 0 0 Z " fill="#1D1E1E" transform="translate(22,16)"/>
</svg>
