<?xml version="1.0" encoding="UTF-8"?>
<svg version="1.1" xmlns="http://www.w3.org/2000/svg" width="300" height="168">
<path d="M0 0 C99 0 198 0 300 0 C300 55.44 300 110.88 300 168 C201 168 102 168 0 168 C0 112.56 0 57.12 0 0 Z " fill="#FAFBFD" transform="translate(0,0)"/>
<path d="M0 0 C30.36 0 60.72 0 92 0 C91.67 1.65 91.34 3.3 91 5 C60.97 5 30.94 5 0 5 C0 3.35 0 1.7 0 0 Z " fill="#177EC2" transform="translate(67,119)"/>
<path d="M0 0 C10.88304241 -0.11580051 21.76593849 -0.20466802 32.64947128 -0.25906086 C37.70305883 -0.28516559 42.75622519 -0.32057972 47.80957031 -0.37719727 C52.68548985 -0.43148566 57.56100404 -0.46141394 62.43720245 -0.47438622 C64.29840732 -0.4836318 66.15958975 -0.50168639 68.02062225 -0.52865028 C70.62589113 -0.56489925 73.22948085 -0.56994722 75.83496094 -0.56762695 C76.99158234 -0.59459152 76.99158234 -0.59459152 78.17156982 -0.62210083 C80.33001709 -0.60127258 80.33001709 -0.60127258 84 0 C85.32 1.65 86.64 3.3 88 5 C58.96 5 29.92 5 0 5 C0 3.35 0 1.7 0 0 Z " fill="#177DC2" transform="translate(67,34)"/>
<path d="M0 0 C28.71 0 57.42 0 87 0 C86 3 86 3 83 5 C80.31142487 5.18413154 77.72812136 5.25230414 75.0402832 5.22705078 C74.23029877 5.22734283 73.42031433 5.22763489 72.58578491 5.22793579 C69.90734155 5.22654196 67.22917604 5.21097832 64.55078125 5.1953125 C62.69418998 5.19158256 60.83759675 5.1887355 58.98100281 5.18673706 C54.09339976 5.17909913 49.20591548 5.15944925 44.31835938 5.1373291 C39.33139655 5.11687413 34.34441455 5.10773609 29.35742188 5.09765625 C19.57156238 5.07620353 9.78579107 5.04206563 0 5 C0 3.35 0 1.7 0 0 Z " fill="#157CC2" transform="translate(67,129)"/>
<path d="M0 0 C30.03 0 60.06 0 91 0 C91 1.32 91 2.64 91 4 C60.97 4 30.94 4 0 4 C0 2.68 0 1.36 0 0 Z " fill="#0073BE" transform="translate(68,44)"/>
<path d="M0 0 C25.08 0 50.16 0 76 0 C70.40923566 4.19307326 66.18087463 5.25356657 59.26025391 5.22705078 C58.61564209 5.22734283 57.97103027 5.22763489 57.30688477 5.22793579 C55.19663577 5.22655315 53.08674908 5.21104311 50.9765625 5.1953125 C49.50540357 5.19157856 48.03424215 5.18873339 46.56307983 5.18673706 C42.70628902 5.17913056 38.84965079 5.159508 34.99291992 5.1373291 C31.05129052 5.11680613 27.10963627 5.10772159 23.16796875 5.09765625 C15.44524323 5.07625903 7.72264306 5.04215949 0 5 C0 3.35 0 1.7 0 0 Z " fill="#0979C0" transform="translate(67,138)"/>
<path d="M0 0 C23.1 0 46.2 0 70 0 C68 4 68 4 66 5 C63.90644981 5.09167789 61.80990823 5.11750933 59.71435547 5.11352539 C59.07032776 5.11367142 58.42630005 5.11381744 57.76275635 5.1139679 C55.63086598 5.1132704 53.49906263 5.10548566 51.3671875 5.09765625 C49.89031014 5.09579149 48.41343216 5.09436786 46.93655396 5.09336853 C43.04687801 5.08954792 39.15723933 5.07972152 35.26757812 5.06866455 C31.29948429 5.05844064 27.33138445 5.05386881 23.36328125 5.04882812 C15.57550384 5.03809885 7.78775714 5.02102789 0 5 C0 3.35 0 1.7 0 0 Z " fill="#117AC1" transform="translate(84,72)"/>
<path d="M0 0 C19.47 0 38.94 0 59 0 C59 1.65 59 3.3 59 5 C39.53 5 20.06 5 0 5 C0 3.35 0 1.7 0 0 Z " fill="#1A7FC3" transform="translate(0,138)"/>
<path d="M0 0 C19.14 0 38.28 0 58 0 C58 1.65 58 3.3 58 5 C38.86 5 19.72 5 0 5 C0 3.35 0 1.7 0 0 Z " fill="#157CC2" transform="translate(1,34)"/>
<path d="M0 0 C19.14 0 38.28 0 58 0 C57.34 0.33 56.68 0.66 56 1 C56 1.66 56 2.32 56 3 C56.99 3.33 57.98 3.66 59 4 C59 4.33 59 4.66 59 5 C39.53 5 20.06 5 0 5 C0 3.35 0 1.7 0 0 Z " fill="#1C81C3" transform="translate(84,82)"/>
<path d="M0 0 C8.61478889 -0.06966222 17.22945911 -0.12289325 25.84446049 -0.15543652 C29.84522041 -0.17105956 33.84578692 -0.19223588 37.84643555 -0.22631836 C41.71086452 -0.25903248 45.57510802 -0.27687827 49.43966484 -0.28463173 C50.91039383 -0.2901537 52.38111323 -0.3009367 53.85176277 -0.31719017 C55.9197049 -0.33912569 57.98689098 -0.34196036 60.05493164 -0.34057617 C61.81698692 -0.35056892 61.81698692 -0.35056892 63.61463928 -0.36076355 C67.64712969 0.06896187 70.36330124 1.24600312 74 3 C74 3.33 74 3.66 74 4 C49.58 4 25.16 4 0 4 C0 2.68 0 1.36 0 0 Z " fill="#0073BE" transform="translate(68,25)"/>
<path d="M0 0 C22.11 0 44.22 0 67 0 C67.99 1.98 67.99 1.98 69 4 C46.23 4 23.46 4 0 4 C0 2.68 0 1.36 0 0 Z " fill="#0073BE" transform="translate(84,91)"/>
<path d="M0 0 C15.84 0 31.68 0 48 0 C48.66 1.65 49.32 3.3 50 5 C33.5 5 17 5 0 5 C0 3.35 0 1.7 0 0 Z " fill="#167DC2" transform="translate(167,34)"/>
<path d="M0 0 C15.84 0 31.68 0 48 0 C48 1.65 48 3.3 48 5 C31.5 5 15 5 -2 5 C-1.34 3.35 -0.68 1.7 0 0 Z " fill="#167DC2" transform="translate(251,34)"/>
<path d="M0 0 C15.18 0 30.36 0 46 0 C46 1.65 46 3.3 46 5 C30.16 5 14.32 5 -2 5 C-1.34 3.35 -0.68 1.7 0 0 Z " fill="#1A7FC3" transform="translate(237,72)"/>
<path d="M0 0 C15.18 0 30.36 0 46 0 C46.66 1.65 47.32 3.3 48 5 C32.16 5 16.32 5 0 5 C0 3.35 0 1.7 0 0 Z " fill="#1B7FC3" transform="translate(183,72)"/>
<path d="M0 0 C19.14 0 38.28 0 58 0 C58 1.32 58 2.64 58 4 C38.86 4 19.72 4 0 4 C0 2.68 0 1.36 0 0 Z " fill="#0073BE" transform="translate(1,129)"/>
<path d="M0 0 C19.14 0 38.28 0 58 0 C58 1.32 58 2.64 58 4 C38.86 4 19.72 4 0 4 C0 2.68 0 1.36 0 0 Z " fill="#0073BE" transform="translate(1,120)"/>
<path d="M0 0 C19.14 0 38.28 0 58 0 C58 1.32 58 2.64 58 4 C38.86 4 19.72 4 0 4 C0 2.68 0 1.36 0 0 Z " fill="#0073BE" transform="translate(1,44)"/>
<path d="M0 0 C19.14 0 38.28 0 58 0 C58 1.32 58 2.64 58 4 C38.86 4 19.72 4 0 4 C0 2.68 0 1.36 0 0 Z " fill="#0073BE" transform="translate(1,25)"/>
<path d="M0 0 C14.19 0 28.38 0 43 0 C43 1.65 43 3.3 43 5 C28.15 5 13.3 5 -2 5 C-1.34 3.35 -0.68 1.7 0 0 Z " fill="#167CC2" transform="translate(240,62)"/>
<path d="M0 0 C13.86 0 27.72 0 42 0 C42.66 1.65 43.32 3.3 44 5 C29.48 5 14.96 5 0 5 C0 3.35 0 1.7 0 0 Z " fill="#137BC1" transform="translate(184,62)"/>
<path d="M0 0 C17.16 0 34.32 0 52 0 C52.66 1.32 53.32 2.64 54 4 C36.18 4 18.36 4 0 4 C0 2.68 0 1.36 0 0 Z " fill="#0073BE" transform="translate(167,44)"/>
<path d="M0 0 C17.16 0 34.32 0 52 0 C52 1.32 52 2.64 52 4 C34.51 4 17.02 4 -1 4 C-0.67 2.68 -0.34 1.36 0 0 Z " fill="#0073BE" transform="translate(247,44)"/>
<path d="M0 0 C13.86 0 27.72 0 42 0 C42 1.65 42 3.3 42 5 C28.14 5 14.28 5 0 5 C0 3.35 0 1.7 0 0 Z " fill="#177EC2" transform="translate(257,138)"/>
<path d="M0 0 C13.86 0 27.72 0 42 0 C42 1.65 42 3.3 42 5 C28.14 5 14.28 5 0 5 C0 3.35 0 1.7 0 0 Z " fill="#177DC2" transform="translate(167,138)"/>
<path d="M0 0 C14.19 0 28.38 0 43 0 C42.67 1.65 42.34 3.3 42 5 C28.8 5 15.6 5 2 5 C1.34 3.35 0.68 1.7 0 0 Z " fill="#197EC2" transform="translate(211,81)"/>
<path d="M0 0 C12.87 0 25.74 0 39 0 C39 1.65 39 3.3 39 5 C25.47 5 11.94 5 -2 5 C-1.34 3.35 -0.68 1.7 0 0 Z " fill="#117AC1" transform="translate(244,53)"/>
<path d="M0 0 C12.87 0 25.74 0 39 0 C39.66 1.65 40.32 3.3 41 5 C27.47 5 13.94 5 0 5 C0 3.35 0 1.7 0 0 Z " fill="#1079C0" transform="translate(184,53)"/>
<path d="M0 0 C15.18 0 30.36 0 46 0 C46.495 1.98 46.495 1.98 47 4 C31.49 4 15.98 4 0 4 C0 2.68 0 1.36 0 0 Z " fill="#0073BE" transform="translate(167,25)"/>
<path d="M0 0 C14.85 0 29.7 0 45 0 C45 1.32 45 2.64 45 4 C29.82 4 14.64 4 -1 4 C-0.67 2.68 -0.34 1.36 0 0 Z " fill="#0073BE" transform="translate(254,25)"/>
<path d="M0 0 C13.86 0 27.72 0 42 0 C42 1.32 42 2.64 42 4 C28.14 4 14.28 4 0 4 C0 2.68 0 1.36 0 0 Z " fill="#0073BE" transform="translate(257,129)"/>
<path d="M0 0 C13.86 0 27.72 0 42 0 C42 1.32 42 2.64 42 4 C28.14 4 14.28 4 0 4 C0 2.68 0 1.36 0 0 Z " fill="#0073BE" transform="translate(167,129)"/>
<path d="M0 0 C13.86 0 27.72 0 42 0 C42 1.32 42 2.64 42 4 C28.14 4 14.28 4 0 4 C0 2.68 0 1.36 0 0 Z " fill="#0073BE" transform="translate(257,120)"/>
<path d="M0 0 C13.86 0 27.72 0 42 0 C42 1.32 42 2.64 42 4 C28.14 4 14.28 4 0 4 C0 2.68 0 1.36 0 0 Z " fill="#0073BE" transform="translate(167,120)"/>
<path d="M0 0 C9.9 0 19.8 0 30 0 C29.67 1.65 29.34 3.3 29 5 C19.76 5 10.52 5 1 5 C0.67 3.35 0.34 1.7 0 0 Z " fill="#0D7AC1" transform="translate(218,100)"/>
<path d="M0 0 C11.88 0 23.76 0 36 0 C35.67 1.32 35.34 2.64 35 4 C23.78 4 12.56 4 1 4 C0.67 2.68 0.34 1.36 0 0 Z " fill="#0072BD" transform="translate(215,91)"/>
<path d="M0 0 C8.58 0 17.16 0 26 0 C26 1.65 26 3.3 26 5 C17.42 5 8.84 5 0 5 C0 3.35 0 1.7 0 0 Z " fill="#0F7CC1" transform="translate(257,100)"/>
<path d="M0 0 C8.58 0 17.16 0 26 0 C26 1.65 26 3.3 26 5 C17.42 5 8.84 5 0 5 C0 3.35 0 1.7 0 0 Z " fill="#107CC1" transform="translate(17,100)"/>
<path d="M0 0 C8.58 0 17.16 0 26 0 C26 1.65 26 3.3 26 5 C17.42 5 8.84 5 0 5 C0 3.35 0 1.7 0 0 Z " fill="#1A7FC3" transform="translate(257,81)"/>
<path d="M0 0 C8.58 0 17.16 0 26 0 C26 1.65 26 3.3 26 5 C17.42 5 8.84 5 0 5 C0 3.35 0 1.7 0 0 Z " fill="#1D80C3" transform="translate(183,81)"/>
<path d="M0 0 C8.58 0 17.16 0 26 0 C26 1.65 26 3.3 26 5 C17.42 5 8.84 5 0 5 C0 3.35 0 1.7 0 0 Z " fill="#1C7FC3" transform="translate(17,81)"/>
<path d="M0 0 C8.58 0 17.16 0 26 0 C26 1.65 26 3.3 26 5 C17.42 5 8.84 5 0 5 C0 3.35 0 1.7 0 0 Z " fill="#1C7FC3" transform="translate(17,72)"/>
<path d="M0 0 C8.58 0 17.16 0 26 0 C26 1.65 26 3.3 26 5 C17.42 5 8.84 5 0 5 C0 3.35 0 1.7 0 0 Z " fill="#197EC2" transform="translate(84,62)"/>
<path d="M0 0 C8.58 0 17.16 0 26 0 C26 1.65 26 3.3 26 5 C17.42 5 8.84 5 0 5 C0 3.35 0 1.7 0 0 Z " fill="#187DC2" transform="translate(17,62)"/>
<path d="M0 0 C8.58 0 17.16 0 26 0 C26 1.65 26 3.3 26 5 C17.42 5 8.84 5 0 5 C0 3.35 0 1.7 0 0 Z " fill="#157CC1" transform="translate(84,53)"/>
<path d="M0 0 C8.58 0 17.16 0 26 0 C26 1.65 26 3.3 26 5 C17.42 5 8.84 5 0 5 C0 3.35 0 1.7 0 0 Z " fill="#147BC1" transform="translate(17,53)"/>
<path d="M0 0 C8.25 0 16.5 0 25 0 C25.33 1.65 25.66 3.3 26 5 C17.42 5 8.84 5 0 5 C0 3.35 0 1.7 0 0 Z " fill="#147CC1" transform="translate(134,109)"/>
<path d="M0 0 C8.58 0 17.16 0 26 0 C25.67 1.65 25.34 3.3 25 5 C16.75 5 8.5 5 0 5 C0 3.35 0 1.7 0 0 Z " fill="#1C7FC3" transform="translate(133,62)"/>
<path d="M0 0 C8.58 0 17.16 0 26 0 C25.67 1.65 25.34 3.3 25 5 C16.75 5 8.5 5 0 5 C0 3.35 0 1.7 0 0 Z " fill="#0F79C0" transform="translate(134,53)"/>
<path d="M0 0 C8.25 0 16.5 0 25 0 C25 1.65 25 3.3 25 5 C16.75 5 8.5 5 0 5 C0 3.35 0 1.7 0 0 Z " fill="#0A7AC0" transform="translate(184,100)"/>
<path d="M0 0 C8.25 0 16.5 0 25 0 C25 1.65 25 3.3 25 5 C16.75 5 8.5 5 0 5 C0 3.35 0 1.7 0 0 Z " fill="#0B7AC0" transform="translate(84,100)"/>
<path d="M0 0 C7.92 0 15.84 0 24 0 C24.33 1.65 24.66 3.3 25 5 C16.75 5 8.5 5 0 5 C0 3.35 0 1.7 0 0 Z " fill="#127AC1" transform="translate(134,100)"/>
<path d="M0 0 C8.25 0 16.5 0 25 0 C25 1.32 25 2.64 25 4 C16.75 4 8.5 4 0 4 C0 2.68 0 1.36 0 0 Z " fill="#0073BE" transform="translate(257,110)"/>
<path d="M0 0 C8.25 0 16.5 0 25 0 C25 1.32 25 2.64 25 4 C16.75 4 8.5 4 0 4 C0 2.68 0 1.36 0 0 Z " fill="#0073BD" transform="translate(184,110)"/>
<path d="M0 0 C8.25 0 16.5 0 25 0 C25 1.32 25 2.64 25 4 C16.75 4 8.5 4 0 4 C0 2.68 0 1.36 0 0 Z " fill="#0073BD" transform="translate(84,110)"/>
<path d="M0 0 C8.25 0 16.5 0 25 0 C25 1.32 25 2.64 25 4 C16.75 4 8.5 4 0 4 C0 2.68 0 1.36 0 0 Z " fill="#0073BD" transform="translate(17,110)"/>
<path d="M0 0 C8.25 0 16.5 0 25 0 C25 1.32 25 2.64 25 4 C16.75 4 8.5 4 0 4 C0 2.68 0 1.36 0 0 Z " fill="#0073BD" transform="translate(257,91)"/>
<path d="M0 0 C8.25 0 16.5 0 25 0 C25 1.32 25 2.64 25 4 C16.75 4 8.5 4 0 4 C0 2.68 0 1.36 0 0 Z " fill="#0072BD" transform="translate(184,91)"/>
<path d="M0 0 C8.25 0 16.5 0 25 0 C25 1.32 25 2.64 25 4 C16.75 4 8.5 4 0 4 C0 2.68 0 1.36 0 0 Z " fill="#0072BD" transform="translate(17,91)"/>
<path d="M0 0 C7.59 0 15.18 0 23 0 C22.67 1.32 22.34 2.64 22 4 C15.07 4 8.14 4 1 4 C0.67 2.68 0.34 1.36 0 0 Z " fill="#0173BE" transform="translate(221,110)"/>
<path d="M0 0 C5.28 0 10.56 0 16 0 C15.67 1.32 15.34 2.64 15 4 C10.38 4 5.76 4 1 4 C0.67 2.68 0.34 1.36 0 0 Z " fill="#0273BE" transform="translate(225,120)"/>
<path d="M0 0 C2.97 0 5.94 0 9 0 C9 1.32 9 2.64 9 4 C6.36 4 3.72 4 1 4 C0.67 2.68 0.34 1.36 0 0 Z " fill="#0374BE" transform="translate(228,129)"/>
</svg>
