<?xml version="1.0" standalone="no"?>
<!DOCTYPE svg PUBLIC "-//W3C//DTD SVG 20010904//EN"
 "http://www.w3.org/TR/2001/REC-SVG-20010904/DTD/svg10.dtd">
<svg version="1.0" xmlns="http://www.w3.org/2000/svg"
 width="512.000000pt" height="512.000000pt" viewBox="0 0 512.000000 512.000000"
 preserveAspectRatio="xMidYMid meet">

<g transform="translate(0.000000,512.000000) scale(0.100000,-0.100000)"
fill="#000000" stroke="none">
<path d="M2612 4955 c-154 -24 -256 -49 -274 -67 -23 -23 -23 -60 0 -81 24
-22 30 -22 180 10 119 26 143 28 377 28 234 0 258 -2 376 -28 606 -129 1087
-494 1354 -1027 98 -195 158 -386 190 -604 30 -205 16 -535 -30 -706 -8 -30
-15 -67 -15 -81 0 -48 54 -75 93 -46 33 23 72 225 86 435 40 586 -179 1162
-599 1582 -320 321 -723 522 -1169 584 -136 19 -449 20 -569 1z"/>
<path d="M2753 4420 c-96 -10 -240 -38 -265 -51 -45 -24 -24 -109 27 -109 13
0 52 7 88 15 219 51 506 34 735 -42 208 -69 371 -171 537 -338 210 -210 324
-421 386 -719 30 -143 30 -378 0 -526 -11 -58 -21 -113 -21 -122 0 -25 45 -51
75 -44 32 8 40 24 60 121 82 399 3 806 -227 1156 -80 123 -280 323 -401 403
-295 195 -665 290 -994 256z"/>
<path d="M843 4210 c-59 -12 -113 -42 -173 -97 l-52 -48 418 -409 c231 -226
443 -432 471 -460 l53 -50 34 33 c19 19 50 61 68 95 31 57 33 67 33 156 0 146
-12 163 -323 472 -150 149 -274 264 -297 276 -43 21 -132 43 -168 41 -12 -1
-41 -5 -64 -9z"/>
<path d="M481 3923 c-101 -113 -189 -267 -211 -372 -20 -95 -8 -293 24 -416
223 -839 1286 -2064 2264 -2609 196 -109 425 -199 591 -230 107 -21 288 -21
366 -1 128 33 278 121 394 230 39 37 71 71 71 75 0 4 -210 213 -466 464 l-465
455 -41 -29 c-73 -53 -182 -67 -281 -35 -49 16 -92 58 -660 624 -436 435 -614
619 -630 651 -18 36 -22 62 -22 135 0 80 3 97 28 144 l27 53 -282 276 c-156
152 -367 359 -469 460 l-186 183 -52 -58z"/>
<path d="M2767 3869 c-95 -14 -136 -28 -153 -54 -19 -29 -11 -60 18 -76 15 -8
47 -7 126 6 358 59 716 -118 881 -435 66 -125 93 -234 95 -375 0 -67 -5 -151
-13 -191 -15 -80 -7 -110 33 -120 59 -14 79 24 98 193 45 386 -169 780 -517
955 -173 87 -386 124 -568 97z"/>
<path d="M3305 1717 c-22 -8 -51 -20 -65 -27 -37 -20 -100 -72 -100 -83 0 -5
127 -133 283 -285 155 -152 364 -357 464 -456 l183 -180 25 24 c14 13 40 54
58 89 28 58 32 75 32 146 -1 138 -14 157 -313 458 -295 296 -325 317 -455 323
-42 2 -89 -2 -112 -9z"/>
</g>
</svg>
